<?xml version="1.0" standalone="no"?>
<!DOCTYPE svg PUBLIC "-//W3C//DTD SVG 20010904//EN"
 "http://www.w3.org/TR/2001/REC-SVG-20010904/DTD/svg10.dtd">
<svg version="1.0" xmlns="http://www.w3.org/2000/svg"
 width="345.000000pt" height="345.000000pt" viewBox="0 0 345.000000 345.000000"
 preserveAspectRatio="xMidYMid meet">
<metadata>
Created by potrace 1.11, written by Peter Selinger 2001-2013
</metadata>
<g transform="translate(0.000000,345.000000) scale(0.100000,-0.100000)"
fill="#000000" stroke="none">
<path d="M40 1725 l0 -1725 1685 0 1685 0 0 1725 0 1725 -1685 0 -1685 0 0
-1725z m1385 1037 c62 -167 115 -306 119 -309 3 -4 6 134 6 305 l0 312 195 0
195 0 0 -270 0 -270 245 0 245 0 2 268 3 267 198 3 197 2 0 -730 0 -730 -200
0 -200 0 0 285 0 285 -245 0 -245 0 0 -285 0 -285 -254 0 -255 0 -36 118 c-20
64 -40 128 -44 142 l-8 25 -193 0 -193 0 -23 -70 c-13 -38 -33 -103 -44 -142
l-22 -73 -210 0 c-195 0 -210 1 -206 18 4 13 478 1287 527 1415 l11 27 161 -2
161 -3 113 -303z m255 -1569 c-5 -16 -72 -241 -150 -502 -77 -261 -142 -476
-143 -478 -2 -2 -143 -2 -314 -1 l-310 3 460 503 c254 276 462 502 463 502 2
0 -1 -12 -6 -27z m566 -385 c-7 -24 -48 -164 -91 -313 -43 -148 -81 -273 -85
-278 -3 -4 -95 -6 -204 -5 l-198 3 132 145 c287 313 451 490 455 490 2 0 -2
-19 -9 -42z"/>
<path d="M1083 2412 c-35 -125 -63 -233 -63 -240 0 -9 34 -12 131 -12 101 0
130 3 126 13 -2 6 -30 111 -62 232 -32 121 -60 223 -64 227 -3 4 -34 -95 -68
-220z"/>
</g>
</svg>
